<svg xmlns="http://www.w3.org/2000/svg" height="40px" viewBox="0 -960 960 960" width="40px" fill="white"><path d="M688.37-50.67q-59.15 0-101.09-41.65-41.95-41.65-41.95-99.68 0-7.67 4.34-24.89l-265-153.44q-19.66 16.48-42.32 25.07-22.65 8.59-49.02 8.59-60.02 0-101.34-41.99T50.67-480.21q0-59.56 41.27-101.84t101.23-42.28q26.97 0 50.24 9.59 23.27 9.59 42.26 25.07l263-151q-1.67-6.66-2.5-13.36-.84-6.69-.84-12.65 0-59.32 41.95-101.82Q629.22-911 688.67-911q57.33 0 99.83 43T831-767q0 58-42.58 100.17-42.59 42.16-100.09 42.16-27.88 0-52.1-10.33Q612-645.33 594-661L332.33-516.36q2.67 8.61 3.84 18.3 1.16 9.69 1.16 18.37 0 8.69-.5 17.67-.5 8.99-4.16 17.02l260 147.67q20.68-17.71 43.69-27.86 23-10.14 52.43-10.14 58.79 0 100.5 42.18Q831-250.96 831-191.98q0 57.98-42.79 99.65-42.8 41.66-99.84 41.66Z"/></svg>